HIERARCHY
ROOT Hips
{
  OFFSET 263.056 91.6644 -274.608
  CHANNELS 6 Xposition Yposition Zposition Zrotation Xrotation Yrotation
  JOINT LeftUpLeg
  {
    OFFSET 8.64259 1.95398 -2.38835
    CHANNELS 3 Zrotation Xrotation Yrotation
    JOINT LeftLeg
    {
      OFFSET 43.7702 0 0
      CHANNELS 3 Zrotation Xrotation Yrotation
      JOINT LeftFoot
      {
        OFFSET 40.6238 0 0
        CHANNELS 3 Zrotation Xrotation Yrotation
        JOINT LeftToeBase
        {
          OFFSET 12.7242 0 0
          CHANNELS 3 Zrotation Xrotation Yrotation
          End Site
          {
            OFFSET 0 0 0
          }
        }
      }
    }
  }
  JOINT RightUpLeg
  {
    OFFSET -8.2249 1.95398 -2.59336
    CHANNELS 3 Zrotation Xrotation Yrotation
    JOINT RightLeg
    {
      OFFSET 43.5653 0 0
      CHANNELS 3 Zrotation Xrotation Yrotation
      JOINT RightFoot
      {
        OFFSET 40.6238 0 0
        CHANNELS 3 Zrotation Xrotation Yrotation
        JOINT RightToeBase
        {
          OFFSET 12.7242 0 0
          CHANNELS 3 Zrotation Xrotation Yrotation
          End Site
          {
            OFFSET 0 0 0
          }
        }
      }
    }
  }
  JOINT Spine
  {
    OFFSET 0.165834 0.87714 6.61349
    CHANNELS 3 Zrotation Xrotation Yrotation
    JOINT Spine1
    {
      OFFSET 7.38963 1.71661e-005 0
      CHANNELS 3 Zrotation Xrotation Yrotation
      JOINT Spine2
      {
        OFFSET 11.9445 1.14441e-005 0
        CHANNELS 3 Zrotation Xrotation Yrotation
        JOINT Spine3
        {
          OFFSET 14.7254 4.19617e-005 0
          CHANNELS 3 Zrotation Xrotation Yrotation
          JOINT Spine4
          {
            OFFSET 10.9679 0 0
            CHANNELS 3 Zrotation Xrotation Yrotation
            JOINT RightShoulder
            {
              OFFSET 2.46616 -1.6653 3.69651
              CHANNELS 3 Zrotation Xrotation Yrotation
              JOINT RightArm
              {
                OFFSET 13.0012 0 0
                CHANNELS 3 Zrotation Xrotation Yrotation
                JOINT RightForeArm
                {
                  OFFSET 28.7848 1.52588e-005 0
                  CHANNELS 3 Zrotation Xrotation Yrotation
                  JOINT RightHand
                  {
                    OFFSET 26.5688 1.52588e-005 0
                    CHANNELS 3 Zrotation Xrotation Yrotation
                    End Site
                    {
                      OFFSET 0 0 0
                    }
                  }
                }
              }
            }
            JOINT LeftShoulder
            {
              OFFSET 2.38034 -1.29275 -3.7523
              CHANNELS 3 Zrotation Xrotation Yrotation
              JOINT LeftArm
              {
                OFFSET 16.3182 6.10352e-005 0
                CHANNELS 3 Zrotation Xrotation Yrotation
                JOINT LeftForeArm
                {
                  OFFSET 27.0901 0 0
                  CHANNELS 3 Zrotation Xrotation Yrotation
                  JOINT LeftHand
                  {
                    OFFSET 24.5451 1.52588e-005 0
                    CHANNELS 3 Zrotation Xrotation Yrotation
                    End Site
                    {
                      OFFSET 0 0 0
                    }
                  }
                }
              }
            }
            JOINT Neck
            {
              OFFSET 5.0226 -0.0266342 0
              CHANNELS 3 Zrotation Xrotation Yrotation
              JOINT Head
              {
                OFFSET 6.69364 2.86102e-005 0
                CHANNELS 3 Zrotation Xrotation Yrotation
                End Site
                {
                  OFFSET 0 0 0
                }
              }
            }
          }
        }
      }
    }
  }
}
MOTION
Frames:	6
Frame Time:	0.0416667
-23.9633 81.958 11.9023 -4.93365 -68.6886 -3.8595 -146.425 65.9972 86.6491 -32.0488 9.19925 -13.2245 53.2795 -4.81443 0.797439 25.7228 -4.04403 3.45371 169.341 59.2578 91.8682 -67.818 4.60941 0.407396 79.0179 -9.06873 -3.84935 48.1938 2.47318 11.8808 0.212835 13.2816 -89.9483 0.310363 0.443578 0.120934 -11.3605 0.448487 0.101295 -33.8961 0.386731 0.248651 -13.8834 0.386728 0.248661 80.785 -28.8308 -125.17 10.5145 24.8794 -47.8016 20.206 28.9837 -43.4532 -10.0646 0.0910102 -5.59296 -117.057 -33.183 29.4951 17.1483 -21.1546 -39.4005 -14.765 -42.7164 -26.7618 14.0641 -0.731114 -8.83513 19.195 8.38116 16.1878 25.8139 2.43607 -2.36344 
-17.7542 83.7323 18.1007 -9.31855 -64.2378 -5.47474 -137.273 69.437 78.5389 -41.1392 9.29008 -14.5638 58.5749 0.483025 7.33458 37.2738 9.72594 4.5629 174.907 55.9271 88.1248 -60.561 5.37658 -0.844429 75.6975 -8.31711 -3.75226 54.3877 2.96053 8.40765 0.317887 12.9315 -89.8769 1.00991 0.680816 0.263809 -10.6609 0.69177 0.233586 -33.1969 0.570051 0.456229 -13.1842 0.570049 0.456236 78.9471 -33.2429 -125.78 11.6044 27.0554 -46.3967 20.3204 29.8839 -45.1087 -9.26934 0.114641 -5.3714 -116.849 -32.9343 29.6126 5.97735 -23.3968 -41.2566 -10.5885 -29.8949 -32.5695 13.0885 -0.0996252 -4.43693 21.0003 9.6257 16.3445 25.9437 3.20426 -2.77563 
-11.8892 84.8546 24.6431 -10.275 -59.9073 -5.13981 -126.591 70.5854 66.9908 -48.7537 8.7 -13.9655 63.0488 4.05922 7.2279 39.0127 11.8305 4.84675 179.94 51.9924 83.8352 -52.8934 5.47794 -2.69165 72.7879 -7.94166 -3.79542 57.962 2.39951 3.02922 0.253555 12.468 -89.5154 1.93358 0.693012 0.962028 -9.73753 0.734679 0.930568 -32.2703 0.371865 1.12581 -12.2577 0.371864 1.12579 75.5432 -38.3394 -128.481 7.97722 29.3915 -40.3337 23.1579 29.8595 -48.5516 -8.76219 0.298907 -7.73832 -116.023 -32.5741 30.5592 9.27895 -17.0763 -40.5736 -13.8658 -29.2265 -34.3811 17.1335 -0.332518 -5.81996 21.6813 9.83617 12.4657 27.8104 4.9791 -1.00826 
-5.61761 85.6286 31.4798 -10.0141 -57.715 -3.35935 -127.508 69.2965 65.3945 -52.1896 12.275 -13.8756 64.4392 7.83017 12.5708 43.8138 17.0442 2.23585 -175.811 46.184 80.3515 -45.9665 5.58716 -5.14507 66.7123 -6.06153 -3.23965 59.3966 1.89276 -0.0377556 0.309667 12.1852 -89.4403 2.49766 0.836905 1.10668 -9.17347 0.884805 1.06877 -31.7056 0.465636 1.30701 -11.693 0.465643 1.30702 74.9542 -40.9031 -127.94 8.99531 32.9517 -32.3028 26.1468 26.9898 -56.8654 -7.78247 0.329935 -7.87812 -114.746 -32.5635 32.4536 4.25287 -11.7315 -43.1424 -14.5773 -23.1324 -40.8962 22.4115 -0.0107763 -4.02451 22.7431 11.1112 12.9443 27.6587 6.26722 0.19599 
1.34524 86.3229 37.7968 -11.838 -58.173 -1.39405 -135.74 66.9598 71.7794 -55.9344 10.9903 -12.5445 68.5837 11.5738 11.9064 44.9049 17.8204 -0.0355239 -171.913 39.9862 79.5342 -40.8557 3.698 -7.68788 54.0611 -2.23111 -1.21502 58.6669 1.49002 -1.32192 0.408139 11.8607 -89.5763 3.14736 0.983172 0.8347 -8.52346 1.01895 0.790603 -31.0581 0.686871 1.09158 -11.0454 0.686875 1.09158 72.8905 -44.6027 -129.053 1.37 31.2379 -20.3802 32.2323 27.8881 -61.5119 -4.75112 0.453733 -10.4602 -112.045 -32.307 36.3844 -4.95626 -4.70109 -41.3032 -11.6308 -14.1344 -51.1107 25.0275 0.455502 -2.07455 20.4578 12.4105 13.0502 28.2695 7.92457 0.839122 
8.29389 86.5992 43.9694 -11.0624 -58.9871 3.33241 -144.25 64.2496 77.1478 -58.0389 13.2483 -10.5494 67.7484 12.9276 15.2688 49.0136 21.6134 -2.45051 -167.536 37.653 79.83 -42.8859 0.0509156 -10.3306 43.4861 1.63413 1.91465 30.6183 0.455912 -7.39165 0.326719 11.4 -89.8943 4.0732 0.69551 0.20373 -7.59756 0.703804 0.172899 -30.1338 0.602118 0.403337 -10.1212 0.602123 0.403352 73.0771 -46.5472 -127.721 -2.79255 28.6789 -7.54293 37.9198 25.3831 -68.1951 -2.60964 0.470614 -10.8648 -109.422 -31.9443 40.2477 -11.2412 4.7061 -36.4443 -8.2736 -8.08612 -64.0219 28.6588 2.2608 4.0853 18.8559 13.3925 11.129 29.2646 9.41047 0.142777 
